<svg id="visual" viewBox="0 0 900 600" width="900" height="600" xmlns="http://www.w3.org/2000/svg"
    xmlns:xlink="http://www.w3.org/1999/xlink" version="1.1">
    <rect x="0" y="0" width="900" height="600" fill="#F5F5F5"></rect>
    <defs>
        <linearGradient id="grad1_0" x1="33.3%" y1="0%" x2="100%" y2="100%">
            <stop offset="20%" stop-color="#f5f5f5" stop-opacity="1"></stop>
            <stop offset="80%" stop-color="#f5f5f5" stop-opacity="1"></stop>
        </linearGradient>
    </defs>
    <defs>
        <linearGradient id="grad2_0" x1="0%" y1="0%" x2="66.7%" y2="100%">
            <stop offset="20%" stop-color="#f5f5f5" stop-opacity="1"></stop>
            <stop offset="80%" stop-color="#f5f5f5" stop-opacity="1"></stop>
        </linearGradient>
    </defs>
    <g transform="translate(900, 0)">
        <path
            d="M0 486.7C-46.9 441.8 -93.9 396.9 -157.7 380.6C-221.4 364.4 -302 376.9 -344.2 344.2C-386.3 311.5 -390.1 233.7 -407.4 168.8C-424.8 103.9 -455.8 51.9 -486.7 0L0 0Z"
            fill="#FB8B24"></path>
    </g>
    <g transform="translate(0, 600)">
        <path
            d="M0 -486.7C66.6 -483.3 133.3 -479.8 186.3 -449.7C239.3 -419.6 278.7 -363 312.5 -312.5C346.4 -262.1 374.7 -217.9 402.8 -166.8C430.9 -115.8 458.8 -57.9 486.7 0L0 0Z"
            fill="#FB8B24"></path>
    </g>
</svg>