<svg id="visual" viewBox="0 0 900 600" width="900" height="600" xmlns="http://www.w3.org/2000/svg"
    xmlns:xlink="http://www.w3.org/1999/xlink" version="1.1">
    <rect x="0" y="0" width="900" height="600" fill="#F5F5F5"></rect>
    <defs>
        <linearGradient id="grad1_0" x1="33.3%" y1="0%" x2="100%" y2="100%">
            <stop offset="20%" stop-color="#f5f5f5" stop-opacity="1"></stop>
            <stop offset="80%" stop-color="#f5f5f5" stop-opacity="1"></stop>
        </linearGradient>
    </defs>
    <defs>
        <linearGradient id="grad2_0" x1="0%" y1="0%" x2="66.7%" y2="100%">
            <stop offset="20%" stop-color="#f5f5f5" stop-opacity="1"></stop>
            <stop offset="80%" stop-color="#f5f5f5" stop-opacity="1"></stop>
        </linearGradient>
    </defs>
    <g transform="translate(900, 0)">
        <path
            d="M0 486.7C-57.5 466.3 -115 445.8 -176.4 425.9C-237.9 406 -303.2 386.8 -344.2 344.2C-385.1 301.6 -401.6 235.7 -421.3 174.5C-441 113.3 -463.9 56.6 -486.7 0L0 0Z"
            fill="#FB8B24"></path>
    </g>
    <g transform="translate(0, 600)">
        <path
            d="M0 -486.7C63 -471.5 126.1 -456.3 176.8 -426.8C227.5 -397.4 266 -353.8 314 -314C361.9 -274.1 419.3 -238 449.7 -186.3C480.1 -134.6 483.4 -67.3 486.7 0L0 0Z"
            fill="#FB8B24"></path>
    </g>
</svg>