<svg id="visual" viewBox="0 0 900 600" width="900" height="600" xmlns="http://www.w3.org/2000/svg"
    xmlns:xlink="http://www.w3.org/1999/xlink" version="1.1">
    <path
        d="M0 413L21.5 415.8C43 418.7 86 424.3 128.8 431.2C171.7 438 214.3 446 257.2 447.7C300 449.3 343 444.7 385.8 451.3C428.7 458 471.3 476 514.2 474.3C557 472.7 600 451.3 642.8 438.3C685.7 425.3 728.3 420.7 771.2 427C814 433.3 857 450.7 878.5 459.3L900 468L900 601L878.5 601C857 601 814 601 771.2 601C728.3 601 685.7 601 642.8 601C600 601 557 601 514.2 601C471.3 601 428.7 601 385.8 601C343 601 300 601 257.2 601C214.3 601 171.7 601 128.8 601C86 601 43 601 21.5 601L0 601Z"
        fill="#FB8B24" stroke-linecap="round" stroke-linejoin="miter"></path>
</svg>