<svg id="visual" viewBox="0 0 1400 300" width="1400" height="300" xmlns="http://www.w3.org/2000/svg" xmlns:xlink="http://www.w3.org/1999/xlink" version="1.1"><path d="M0 128L23.3 136C46.7 144 93.3 160 140 172.5C186.7 185 233.3 194 280 196.3C326.7 198.7 373.3 194.3 420 184.3C466.7 174.3 513.3 158.7 560 145.7C606.7 132.7 653.3 122.3 700 120.3C746.7 118.3 793.3 124.7 840 140.8C886.7 157 933.3 183 980 183.3C1026.7 183.7 1073.3 158.3 1120 154.8C1166.7 151.3 1213.3 169.7 1260 169.8C1306.7 170 1353.3 152 1376.7 143L1400 134L1400 301L1376.7 301C1353.3 301 1306.7 301 1260 301C1213.3 301 1166.7 301 1120 301C1073.3 301 1026.7 301 980 301C933.3 301 886.7 301 840 301C793.3 301 746.7 301 700 301C653.3 301 606.7 301 560 301C513.3 301 466.7 301 420 301C373.3 301 326.7 301 280 301C233.3 301 186.7 301 140 301C93.3 301 46.7 301 23.3 301L0 301Z" fill="#FB8B24" stroke-linecap="round" stroke-linejoin="miter"></path></svg>