<svg id="visual" viewBox="0 0 900 150" width="900" height="150" xmlns="http://www.w3.org/2000/svg" xmlns:xlink="http://www.w3.org/1999/xlink" version="1.1"><path d="M0 90L15 81.7C30 73.3 60 56.7 90 53.3C120 50 150 60 180 63.3C210 66.7 240 63.3 270 59C300 54.7 330 49.3 360 57.7C390 66 420 88 450 98.2C480 108.3 510 106.7 540 100.3C570 94 600 83 630 75.3C660 67.7 690 63.3 720 62.3C750 61.3 780 63.7 810 65.5C840 67.3 870 68.7 885 69.3L900 70L900 151L885 151C870 151 840 151 810 151C780 151 750 151 720 151C690 151 660 151 630 151C600 151 570 151 540 151C510 151 480 151 450 151C420 151 390 151 360 151C330 151 300 151 270 151C240 151 210 151 180 151C150 151 120 151 90 151C60 151 30 151 15 151L0 151Z" fill="#FB8B24" stroke-linecap="round" stroke-linejoin="miter"></path></svg>