<svg id="visual" viewBox="0 0 1920 200" width="1920" height="200" xmlns="http://www.w3.org/2000/svg" xmlns:xlink="http://www.w3.org/1999/xlink" version="1.1"><path d="M0 120L32 109C64 98 128 76 192 71.5C256 67 320 80 384 84.5C448 89 512 85 576 79.3C640 73.7 704 66.3 768 77.3C832 88.3 896 117.7 960 131.3C1024 145 1088 143 1152 134.5C1216 126 1280 111 1344 100.7C1408 90.3 1472 84.7 1536 83.3C1600 82 1664 85 1728 87.3C1792 89.7 1856 91.3 1888 92.2L1920 93L1920 201L1888 201C1856 201 1792 201 1728 201C1664 201 1600 201 1536 201C1472 201 1408 201 1344 201C1280 201 1216 201 1152 201C1088 201 1024 201 960 201C896 201 832 201 768 201C704 201 640 201 576 201C512 201 448 201 384 201C320 201 256 201 192 201C128 201 64 201 32 201L0 201Z" fill="#FB8B24" stroke-linecap="round" stroke-linejoin="miter"></path></svg>