<svg id="visual" viewBox="0 0 1920 400" width="1920" height="400" xmlns="http://www.w3.org/2000/svg" xmlns:xlink="http://www.w3.org/1999/xlink" version="1.1"><path d="M0 171L32 181.7C64 192.3 128 213.7 192 230.3C256 247 320 259 384 262.2C448 265.3 512 259.7 576 246.3C640 233 704 212 768 194.5C832 177 896 163 960 160.3C1024 157.7 1088 166.3 1152 188C1216 209.7 1280 244.3 1344 244.8C1408 245.3 1472 211.7 1536 206.8C1600 202 1664 226 1728 226C1792 226 1856 202 1888 190L1920 178L1920 401L1888 401C1856 401 1792 401 1728 401C1664 401 1600 401 1536 401C1472 401 1408 401 1344 401C1280 401 1216 401 1152 401C1088 401 1024 401 960 401C896 401 832 401 768 401C704 401 640 401 576 401C512 401 448 401 384 401C320 401 256 401 192 401C128 401 64 401 32 401L0 401Z" fill="#FB8B24" stroke-linecap="round" stroke-linejoin="miter"></path></svg>